<?xml version="1.0" standalone="no"?>
<!DOCTYPE svg PUBLIC "-//W3C//DTD SVG 20010904//EN"
 "http://www.w3.org/TR/2001/REC-SVG-20010904/DTD/svg10.dtd">
<svg version="1.0" xmlns="http://www.w3.org/2000/svg"
 width="751.000000pt" height="751.000000pt" viewBox="0 0 751.000000 751.000000"
 preserveAspectRatio="xMidYMid meet">
<metadata>
Created by potrace 1.11, written by Peter Selinger 2001-2013
</metadata>
<g transform="translate(0.000000,751.000000) scale(0.100000,-0.100000)"
fill="#000000" stroke="none">
<path d="M3500 7503 c-19 -1 -84 -8 -145 -13 -533 -51 -1113 -249 -1575 -538
-856 -536 -1447 -1355 -1681 -2331 -124 -514 -131 -1116 -19 -1640 242 -1146
993 -2100 2054 -2611 1038 -501 2275 -490 3301 29 647 327 1174 818 1544 1436
654 1092 705 2459 135 3597 -291 581 -724 1075 -1259 1436 -539 365 -1143 576
-1800 632 -110 9 -472 11 -555 3z m470 -1354 c809 -74 1522 -548 1908 -1269
200 -374 303 -852 273 -1271 -26 -348 -98 -619 -248 -921 -316 -639 -891
-1097 -1590 -1267 -436 -106 -933 -81 -1358 69 -722 256 -1289 852 -1505 1583
-69 236 -95 421 -94 692 1 394 75 713 250 1064 299 603 835 1049 1483 1236
286 82 590 111 881 84z"/>
<path d="M3541 5739 c-368 -39 -756 -201 -1045 -438 -95 -78 -268 -258 -337
-351 -217 -291 -352 -641 -388 -1004 -67 -680 230 -1358 779 -1776 601 -457
1420 -533 2095 -194 970 487 1372 1659 906 2639 -360 757 -1173 1211 -2010
1124z"/>
</g>
</svg>
